<svg xmlns="http://www.w3.org/2000/svg" viewBox="0 0 121.23 97.79"><defs><style>.cls-1{fill:#231f20;}</style></defs><title>Asset 5</title><g id="Layer_2" data-name="Layer 2"><g id="Layer_1-2" data-name="Layer 1"><path class="cls-1" d="M104.77,0H16.46A16.46,16.46,0,0,0,0,16.46V81.33A16.45,16.45,0,0,0,16.46,97.79h88.31a16.45,16.45,0,0,0,16.46-16.46V16.46A16.46,16.46,0,0,0,104.77,0ZM75.1,78.21H64.61l.33-24.77a33,33,0,0,0-2.25-12.25c-3.5-8.76-9.83-4.07-12.16.61-2.06,4.1-2.06,7.36-2.06,12l-.31,24.46h-9l-.48-23.54A30.6,30.6,0,0,0,35.74,42c-3.81-8.32-8.23-5.94-12-1.73s-5,9.87-5,15.41l.49,22.56H7.73V23.38l9-.05.5,10c13.31-19.13,25.4,0,26.89,5.87C44.92,33.62,50,30.1,53,28.08c3.55-2.44,8-1.75,11.54.74C80.85,40.29,75.1,78.21,75.1,78.21Zm8.3-1.45c-10.77-4.33-4.14-24.94-4.14-24.94S82.49,39,96.81,38.66,111.58,57,111.58,57L93,60.64a7,7,0,0,0-5.71,5.75c-.33,2.53.74,5.07,5.16,6,7.87,1.63,12.82-7.62,12.82-7.62l6.82,3S104.89,85.42,83.4,76.76ZM105.13,53s-5-10.63-11.32-9.35-5.21,12.9-5.21,12.9Z"/></g></g></svg>