<svg xmlns="http://www.w3.org/2000/svg" viewBox="0 0 122.23 98.8"><defs><style>.cls-1{fill:#231f20;}.cls-2{fill:none;stroke:#231f20;stroke-miterlimit:10;}</style></defs><title>Asset 6</title><g id="Layer_2" data-name="Layer 2"><g id="Layer_1-2" data-name="Layer 1"><path class="cls-1" d="M11,22.76V77.59H22.43L21.94,55c0-5.54,1.33-11.28,5-15.41S35.15,33,39,41.35A30.55,30.55,0,0,1,41.9,54l.49,23.55h9l.32-24.47c0-4.59,0-7.85,2-12,2.32-4.67,8.66-9.36,12.16-.59a33.09,33.09,0,0,1,2.25,12.25l-.32,24.77H78.32s5.74-37.93-10.59-49.4c-3.52-2.48-8-3.17-11.54-.74-3.22,2.2-9,6.19-9,12.78,2.37-.67-11.39-29.59-26.76-7.49l-.5-10Z"/><path class="cls-1" d="M95.64,71.75c-4.43-.91-5.5-3.46-5.18-6A7,7,0,0,1,96.18,60l18.63-3.61S114.34,37.67,100,38,82.47,51.2,82.47,51.2s-6.62,20.59,4.16,24.94c21.48,8.65,28.64-9,28.64-9l-6.82-3S103.5,73.37,95.64,71.75ZM97,43c6.35-1.27,11.32,9.35,11.32,9.35L91.82,55.91S90.68,44.27,97,43Z"/><rect class="cls-2" x="0.5" y="0.5" width="121.23" height="97.8" rx="9.54"/></g></g></svg>