<svg xmlns="http://www.w3.org/2000/svg" viewBox="0 0 104.31 55.83"><defs><style>.cls-1{fill:#231f20;}</style></defs><title>Asset 1</title><g id="Layer_2" data-name="Layer 2"><g id="Layer_1-2" data-name="Layer 1"><path class="cls-1" d="M0,.06V54.89H11.48L11,32.33c0-5.54,1.33-11.29,5-15.42s8.18-6.59,12,1.74A30.55,30.55,0,0,1,31,31.34l.49,23.55h9l.32-24.47c0-4.59,0-7.85,2-12,2.32-4.67,8.66-9.35,12.16-.59A33.1,33.1,0,0,1,57.2,30.13l-.32,24.76H67.36S73.1,17,56.78,5.49c-3.53-2.47-8-3.16-11.55-.73-3.22,2.2-9,6.18-9,12.77C38.61,16.87,24.85-12.06,9.48,10L9,0Z"/><path class="cls-1" d="M84.68,49.05c-4.42-.91-5.5-3.46-5.17-6a7,7,0,0,1,5.71-5.75l18.63-3.61S103.38,15,89.07,15.34,71.52,28.5,71.52,28.5s-6.63,20.6,4.15,24.94c21.48,8.66,28.64-9,28.64-9l-6.81-3S92.54,50.67,84.68,49.05ZM86.07,20.3c6.34-1.28,11.31,9.35,11.31,9.35L80.86,33.22S79.72,21.58,86.07,20.3Z"/></g></g></svg>